<?xml version="1.0" encoding="UTF-8" standalone="no"?>
<svg width="45px" height="45px" viewBox="0 0 45 45" version="1.1" xmlns="http://www.w3.org/2000/svg" xmlns:xlink="http://www.w3.org/1999/xlink" xmlns:sketch="http://www.bohemiancoding.com/sketch/ns">
    <!-- Generator: Sketch 3.2.1 (9971) - http://www.bohemiancoding.com/sketch -->
    <title>team-you</title>
    <desc>Created with Sketch.</desc>
    <defs>
        <linearGradient x1="0%" y1="0%" x2="96.1475606%" y2="96.1475606%" id="linearGradient-1">
            <stop stop-color="#33CDCD" offset="0%"></stop>
            <stop stop-color="#33CD7F" offset="100%"></stop>
        </linearGradient>
    </defs>
    <g id="Profile" stroke="none" stroke-width="1" fill="none" fill-rule="evenodd" sketch:type="MSPage">
        <g id="Creacion-de-Perfil-4" sketch:type="MSArtboardGroup" transform="translate(-618.000000, -8.000000)">
            <g id="team-you" sketch:type="MSLayerGroup" transform="translate(618.000000, 8.000000)">
                <circle id="Oval-12" fill="url(#linearGradient-1)" sketch:type="MSShapeGroup" cx="22.5" cy="22.5" r="22.5"></circle>
                <path d="M30.9709539,13.9898785 C30.9709539,12.8914803 31.8728406,12.0002626 32.9850791,12.0002626 C34.0975828,12.0002626 35,12.8914803 35,13.9898785 C35,15.0890645 34.0975828,15.979757 32.9850791,15.979757 C31.8728406,15.979757 30.9709539,15.0890645 30.9709539,13.9898785 Z M11,13.9898785 C11,12.8914803 11.9026824,12 13.0143904,12 C14.1274246,12 15.0282503,12.8914803 15.0282503,13.9898785 C15.0282503,15.0888019 14.1274246,15.9794944 13.0143904,15.9794944 C11.9026824,15.9794944 11,15.0888019 11,13.9898785 Z M17.6864286,28.0161849 C20.5557545,30.7334272 27.7477702,33.4236232 30.6905733,31.2459956 C28.6077456,32.9648851 25.9272854,34 23.0001326,34 C16.3731225,34 11,28.6931322 11,22.1473825 L11,20.3906806 C11,17.7380344 15.0282503,17.7380344 15.0282503,20.3906806 L15.0282503,22.1473825 C15.0282503,24.4796734 16.0550748,26.5751116 17.6864286,28.0161849 Z M30.9709539,20.3906806 L30.9709539,22.1473825 C30.9709539,26.495548 27.4021353,30.0207682 23.0001326,30.0207682 C22.3067409,30.0207682 21.6353659,29.9314889 20.9944958,29.7676351 C23.0791803,30.8371488 25.6110945,31.6406627 27.7342419,31.6406627 L27.7347724,31.6406627 C28.8881263,31.6406627 30.6905733,31.2459956 31.5760138,30.4348667 C33.6922643,28.2974147 35,25.373517 35,22.1473825 L35,20.3906806 C35,17.7380344 30.9709539,17.7380344 30.9709539,20.3906806 Z" id="Fill-7" fill="#FFFFFF" sketch:type="MSShapeGroup"></path>
            </g>
        </g>
    </g>
</svg>