<?xml version="1.0" encoding="UTF-8" standalone="no"?>
<svg width="31px" height="28px" viewBox="0 0 31 28" version="1.1" xmlns="http://www.w3.org/2000/svg" xmlns:xlink="http://www.w3.org/1999/xlink" xmlns:sketch="http://www.bohemiancoding.com/sketch/ns">
    <!-- Generator: Sketch 3.2.1 (9971) - http://www.bohemiancoding.com/sketch -->
    <title>logo-footer</title>
    <desc>Created with Sketch.</desc>
    <defs></defs>
    <g id="Profile" stroke="none" stroke-width="1" fill="none" fill-rule="evenodd" sketch:type="MSPage">
        <g id="Creacion-de-Perfil-4" sketch:type="MSArtboardGroup" transform="translate(-622.000000, -660.000000)" fill="#FFFFFF">
            <g id="Group-4" sketch:type="MSLayerGroup" transform="translate(0.000000, 648.000000)">
                <path d="M647.795816,14.5325726 C647.795816,13.1346113 648.960752,12.0003342 650.397394,12.0003342 C651.834378,12.0003342 653,13.1346113 653,14.5325726 C653,15.9315366 651.834378,17.0651453 650.397394,17.0651453 C648.960752,17.0651453 647.795816,15.9315366 647.795816,14.5325726 Z M622,14.5325726 C622,13.1346113 623.165965,12 624.601921,12 C626.03959,12 627.203157,13.1346113 627.203157,14.5325726 C627.203157,15.9312024 626.03959,17.0648111 624.601921,17.0648111 C623.165965,17.0648111 622,15.9312024 622,14.5325726 Z M630.636637,32.3842353 C634.34285,35.8425437 643.632536,39.2664295 647.433657,36.4949034 C644.743338,38.682581 641.281077,40 637.500171,40 C628.940283,40 622,33.2458046 622,24.9148504 L622,22.679048 C622,19.3029529 627.203157,19.3029529 627.203157,22.679048 L627.203157,24.9148504 C627.203157,27.8832207 628.529472,30.550142 630.636637,32.3842353 Z M647.795816,22.679048 L647.795816,24.9148504 C647.795816,30.4488792 643.186091,34.9355231 637.500171,34.9355231 C636.60454,34.9355231 635.737348,34.8218949 634.909557,34.6133537 C637.602275,35.974553 640.872664,36.997207 643.615062,36.997207 L643.615748,36.997207 C645.105496,36.997207 647.433657,36.4949034 648.577351,35.4625576 C651.310841,32.7421642 653,29.0208398 653,24.9148504 L653,22.679048 C653,19.3029529 647.795816,19.3029529 647.795816,22.679048 Z" id="logo-footer" sketch:type="MSShapeGroup"></path>
            </g>
        </g>
    </g>
</svg>