<?xml version="1.0" encoding="UTF-8" standalone="no"?>
<svg width="134px" height="20px" viewBox="0 0 134 20" version="1.1" xmlns="http://www.w3.org/2000/svg" xmlns:xlink="http://www.w3.org/1999/xlink" xmlns:sketch="http://www.bohemiancoding.com/sketch/ns">
    <!-- Generator: Sketch 3.2.2 (9983) - http://www.bohemiancoding.com/sketch -->
    <title>logo-side</title>
    <desc>Created with Sketch.</desc>
    <defs></defs>
    <g id="Comentarios-y-Respuestas" stroke="none" stroke-width="1" fill="none" fill-rule="evenodd" sketch:type="MSPage">
        <g id="Comentarios-en-Preguntas" sketch:type="MSArtboardGroup" transform="translate(-225.000000, -20.000000)" fill="#FFFFFF">
            <g id="logo-side" sketch:type="MSLayerGroup" transform="translate(170.000000, 8.000000)">
                <path d="M71.4277639,12.0247525 L68.8780138,25.0826866 C68.0921451,26.6273749 66.1245911,28.2463206 65.0216849,28.2463206 C64.6322732,28.2463206 64.3888909,28.0509767 64.2550306,27.6315226 C64.1570372,27.3251271 64.1973874,26.8762376 64.2704021,26.2119347 C64.3197191,25.5168584 64.4189934,24.6746053 64.5579775,23.7808402 C64.6604543,23.1867808 64.797517,22.519133 64.9486702,21.7839176 C65.0492256,21.2955579 65.1555452,20.7764249 65.2618648,20.2318705 L66.428819,14.3916243 L66.9572149,12 L66.5549936,12 C63.5236027,12 59.7326027,12.2595665 57.2942962,14.2906074 C55.4100046,15.9704308 54.6971506,18.5119079 55.1160244,22.0595397 L55.1691842,22.5104362 L59.1702615,20.6225582 L58.9979724,20.303452 C58.059029,18.5707787 57.9956215,16.7089912 58.8391334,15.9811346 C59.7025002,15.300107 61.0744079,15.0412095 62.3713795,14.8799839 L61.229404,20.1649719 C60.7823491,22.2261172 60.485807,23.8744983 60.3231251,25.209794 C60.1623647,26.7518063 60.1867029,27.8529569 60.4051065,28.790875 C60.6721866,29.8217822 61.1909752,30.5536527 61.9730011,31.0152529 C62.7114743,31.530372 63.5735601,31.8019802 64.465108,31.8019802 C65.7114817,31.8019802 66.9629792,31.2667915 67.9102488,30.3743645 L67.5855256,31.8086701 L71.6109411,31.8086701 L75.4141101,12.0247525 L71.4277639,12.0247525 Z M91.7213663,17.6763447 C92.347115,17.6763447 92.88768,17.4569173 93.3270491,17.0267594 C93.7984423,16.5658282 94.0373412,16.0052181 94.0373412,15.3589778 C94.0373412,14.7187584 93.8150947,14.1755419 93.3590731,13.699224 C92.9139397,13.2336098 92.4162869,13.0168584 91.794381,13.0168584 C91.1769585,13.0168584 90.651765,13.2376238 90.1733266,13.7072518 C89.7672624,14.1594862 89.5559041,14.6953439 89.5270825,15.3589778 C89.5270825,16.0206048 89.7224288,16.5618143 90.1316954,17.0187316 C90.5492883,17.4555793 91.0840889,17.6763447 91.7213663,17.6763447 Z M104.377888,18.4309607 L101.638555,18.4309607 L98.4022111,25.8894835 L98.4444827,18.4309607 L94.4440459,18.4309607 L94.4273934,27.3585764 C93.7728231,28.6871822 92.3752962,29.8117474 91.6618017,29.8117474 C91.5055246,29.8117474 91.4427576,29.7555526 91.4094526,29.7140755 C91.3524499,29.641156 91.2326802,29.4029971 91.3543714,28.7420391 C91.5798202,27.5338507 91.8052691,26.387878 92.0448086,25.1689858 C92.3932296,23.3995183 92.7871247,21.3938988 93.2527535,18.8270003 L93.3244872,18.4309607 L89.3189266,18.4309607 L87.6600839,26.7564892 C87.5422356,27.3712871 87.4839519,27.9479529 87.4865139,28.4731068 C86.7595693,29.3936313 85.9474409,29.8893497 85.5368933,29.8893497 C85.4107188,29.8893497 85.3594804,29.8458657 85.3287374,29.8070645 C85.2710942,29.734814 85.1494031,29.4913032 85.2698133,28.7881991 C85.6220772,26.7484613 85.6784394,26.4494247 85.8430427,25.5824191 C85.928867,25.1328606 86.0428724,24.5307733 86.2427021,23.4523682 C86.5674253,21.6360717 86.3592694,20.1984212 85.6412916,19.2952903 C85.1257053,18.6463741 84.3795464,18.3031844 83.4835151,18.3031844 C82.4075091,18.3031844 81.2187785,18.8176345 80.2132253,19.686647 L80.4540457,18.4309607 L76.4670589,18.4309607 L73.8795205,31.8086701 L77.9920413,31.8086701 L79.557374,23.1600214 C80.0972984,21.7571581 81.5793687,20.4372491 82.3344944,20.4372491 C82.4677142,20.4372491 82.5202335,20.4847471 82.5490551,20.5208724 C82.6028554,20.5884399 82.7155798,20.818571 82.5951696,21.4741771 L82.5791576,21.5658282 C82.2685249,23.3125502 81.9572518,25.0606101 81.6209999,26.8180359 C81.2540049,29.0945946 81.7913675,30.3322184 82.3069537,30.9690929 C82.8340686,31.6200161 83.5795871,31.9652127 84.4615278,31.9652127 C85.6022223,31.9652127 86.8204149,31.3912229 87.8637565,30.3743645 C88.3357901,31.3945678 89.2388666,31.9692267 90.4058208,31.9692267 C91.7386592,31.9692267 93.2463487,31.2059138 94.4222696,29.9749799 L94.4184267,31.8086701 L98.3176677,31.8086701 L98.4066944,31.6267059 C99.4987125,29.405673 100.727793,26.6106503 101.916524,23.9079476 C102.733135,22.0521809 103.503633,20.2987691 104.153079,18.9119615 L104.377888,18.4309607 Z M123.741513,19.3166979 C121.195606,17.7332085 119.087147,17.9854161 117.38283,20.0806797 L117.687698,18.4309607 L113.703273,18.4309607 L112.026497,27.1036928 C111.071542,28.6651057 109.752154,29.6324592 108.571109,29.6324592 C108.223328,29.6324592 107.880672,29.5515119 107.559151,29.3943002 C106.714358,28.9634734 106.335834,27.8261975 106.24937,26.856168 C108.592245,26.8374364 110.4285,25.77308 111.427008,23.8477388 C112.153953,22.3552315 112.26988,20.1897244 110.812788,18.9661493 C110.319619,18.5326465 109.644553,18.3031844 108.862527,18.3031844 C107.421448,18.3031844 105.370631,19.1313888 103.935316,21.4594595 C102.331555,24.124699 101.96456,27.6241638 103.061702,29.7782981 C103.762386,31.152395 104.987624,31.907011 106.607398,31.9605298 C106.710515,31.9632058 106.812351,31.9645438 106.913547,31.9645438 C108.790793,31.9645438 110.189601,31.4554455 111.409075,30.2934172 L111.116376,31.8086701 L115.203277,31.8086701 L116.604647,24.2518063 C117.393718,22.9232004 118.595899,21.3671394 119.897994,21.3671394 C120.307901,21.3671394 120.721011,21.5236821 121.126434,21.8320846 L121.327545,21.9846133 L124.131566,19.5588708 L123.741513,19.3166979 Z M107.494462,21.8407814 C108.129818,20.7918116 108.840751,20.3215146 109.264108,20.3215146 C109.348651,20.3215146 109.415902,20.3409152 109.451128,20.3676746 C109.584348,20.5248863 109.692589,21.6755419 109.160991,22.9058068 C108.767096,23.8176345 107.961372,24.8973776 106.345442,24.9850147 C106.592667,23.7306663 106.988483,22.6469093 107.494462,21.8407814 Z M140.384381,12.0200696 L137.044279,12.0528499 L135.411055,17.5492374 L137.974255,17.5492374 L140.384381,12.0200696 Z M187.405205,26.7678619 L187.312336,26.9297565 C186.558491,28.2362858 185.226934,29.6324592 183.751268,29.6324592 C183.402847,29.6324592 183.06019,29.5521809 182.738029,29.3943002 C181.893236,28.9634734 181.515353,27.8261975 181.428248,26.856168 C183.771123,26.8374364 185.606738,25.77308 186.606527,23.8477388 C187.332831,22.3552315 187.448758,20.1897244 185.991666,18.9661493 C185.498497,18.5326465 184.824072,18.3031844 184.041405,18.3031844 C182.600326,18.3031844 180.54951,19.1313888 179.114835,21.4594595 C177.824268,23.604228 177.30676,26.4213273 177.801851,28.5426813 C177.156248,29.1795558 176.455563,29.4719026 176.055903,29.4719026 C175.956629,29.4719026 175.82469,29.45384 175.761283,29.3715547 C175.693392,29.2832486 175.681863,29.1073053 175.73182,28.8658014 C175.947022,27.6495852 176.043734,27.1264383 176.126997,26.6755419 C176.18464,26.3631255 176.235878,26.0854964 176.315938,25.6366069 L176.703428,23.3814557 C177.08003,21.4587905 176.920551,19.9843457 176.244204,19.1186781 C175.826612,18.5841584 175.231606,18.3018464 174.522595,18.3018464 C173.315931,18.3018464 171.946585,19.1019534 170.830229,20.4278833 C170.514472,19.0832218 169.608834,18.3038534 168.30866,18.3038534 C167.356266,18.3038534 166.327656,18.743377 165.462367,19.4926412 L165.656433,18.4309607 L161.648951,18.4309607 L159.678835,28.7192936 C159.043479,29.3902863 158.29732,29.8538935 157.840658,29.8538935 C157.690786,29.8538935 157.631861,29.8017126 157.600478,29.7622424 C157.547959,29.6953439 157.439077,29.4765855 157.551161,28.8704843 C157.823365,27.4482205 158.08404,26.1824993 158.367132,24.8097404 C158.665596,23.3613861 158.989038,21.7932834 159.375247,19.7990367 L159.651294,18.4309607 L153.089579,18.4309607 C149.203147,18.5667648 146.61753,21.7772277 146.165352,27.0715815 C145.580593,28.6075729 144.065859,29.8472036 143.3735,29.8472036 C143.22683,29.8472036 143.180075,29.7876639 143.162142,29.7655874 C143.108982,29.6973508 142.997538,29.4692267 143.11987,28.8203104 L144.698653,20.6499866 L146.171756,20.6499866 L147.181793,18.4309607 L145.093188,18.4309607 L145.864967,14.3247257 L141.732591,15.1750067 L141.085066,18.4309607 L139.962945,18.4309607 L139.091893,20.6499866 L140.63737,20.6499866 L139.426223,26.857506 C139.339758,27.3010436 139.286599,27.7198287 139.263541,28.133931 C138.496246,29.1721969 137.488772,29.8110784 136.977028,29.8110784 C136.821392,29.8110784 136.759265,29.7555526 136.72596,29.7134065 C136.668958,29.641156 136.549828,29.4029971 136.670879,28.7420391 C136.896968,27.5305058 137.123058,26.3811881 137.363238,25.158951 C137.711018,23.3921595 138.104913,21.388547 138.569261,18.8270003 L138.640995,18.4309607 L134.636075,18.4309607 L133.873904,22.2535456 C133.910411,21.6855767 133.851487,21.1470431 133.676636,20.7088574 C133.055371,19.3026492 131.609808,18.4664169 129.620477,18.3553653 C128.250491,18.2188922 126.915091,18.414905 125.795532,18.9373829 C124.679176,19.407011 123.92341,20.1863794 123.665937,21.1323254 C123.436004,21.9765855 123.61662,22.8770404 124.154623,23.6363393 C124.502403,24.2591651 125.251124,24.9990634 125.94028,25.4104897 C126.372604,25.7543484 126.738959,25.9597271 127.203307,26.2179556 C127.415946,26.3370351 127.650362,26.4674873 127.88862,26.6073053 C128.710996,27.2515387 129.211211,27.7927482 128.979357,28.3413166 C128.725087,28.9554455 128.213984,29.4304255 127.433239,29.7883329 C127.001556,29.9569173 126.528241,30.0465614 126.063893,30.0465614 C125.290193,30.0465614 124.675333,29.7943538 124.52482,29.3969762 C124.465256,29.2678619 124.465896,29.1327268 124.527382,28.9855499 C124.707357,28.555392 125.334387,28.131924 126.203518,27.8549639 L126.762016,27.6756757 L124.3647,25.5422799 L124.182163,25.6252341 C122.663586,26.3129516 121.765633,27.8101418 121.998768,29.2725448 C122.29531,30.9543752 124.072641,32 126.637763,32 C129.015224,32 131.231925,31.0901793 132.284233,29.6826331 C132.519289,29.3682098 132.693499,29.030372 132.809426,28.6738025 C132.844653,29.6230934 133.086754,30.4011239 133.532528,30.9684239 C134.048114,31.6253679 134.80388,31.9732406 135.717845,31.9732406 C136.97895,31.9732406 138.36751,31.3196414 139.517171,30.2037731 C139.94245,31.3423869 140.852572,31.9826064 142.083574,31.9826064 C143.572689,31.9826064 145.233453,31.0433503 146.449725,29.547498 C147.012706,31.0640888 148.303273,31.9812684 149.943542,31.9812684 C151.440984,31.9812684 152.905761,31.2159486 153.979205,29.9020605 C154.320581,31.2052448 155.262727,31.9605298 156.605813,31.9605298 C157.432672,31.9605298 158.354323,31.6608242 159.21833,31.1209526 L159.087031,31.8086701 L163.098356,31.8086701 L164.821888,22.8328873 C164.821888,22.8322184 164.821888,22.8322184 164.822528,22.8315494 L164.85135,22.7760235 C165.43931,21.5169922 166.548621,20.5034787 167.075096,20.5034787 C167.151313,20.5034787 167.180775,20.5268932 167.201911,20.5529837 C167.24162,20.6031576 167.362671,20.821247 167.24162,21.5256891 C166.979024,23.0188654 166.710022,24.6230934 166.410918,26.4052716 C166.154726,27.9305593 165.876758,29.5862992 165.562282,31.4153064 L165.495032,31.8086701 L169.353923,31.8086701 L169.404521,31.5370618 C169.460883,31.2279904 169.73693,29.592989 170.028988,27.8596468 C170.360757,25.8928285 170.713661,23.7975649 170.787957,23.3948354 C170.803328,23.3306128 170.815498,23.3051913 170.848162,23.2336098 C171.400896,21.7571581 172.656877,20.4620016 173.166699,20.4620016 L173.172463,20.4620016 C173.187194,20.4807332 173.312088,20.6693872 173.15517,21.4494247 C172.966229,22.5238159 172.777287,23.554723 172.593469,24.5561948 C172.399404,25.6178753 172.211103,26.6447685 172.035612,27.6502542 C171.715372,29.4290875 172.156022,30.44327 172.582581,30.9804656 C173.081515,31.6093123 173.852653,31.955178 174.752527,31.955178 C176.016194,31.955178 177.390023,31.3029168 178.496131,30.1924003 C179.222435,31.3042547 180.350961,31.9130318 181.786276,31.9605298 C181.890034,31.9632058 181.993151,31.9645438 182.095628,31.9645438 C185.085387,31.9645438 187.011951,30.6018196 188.743808,27.2615735 L189,26.7678619 L187.405205,26.7678619 Z M182.673981,21.8414504 C183.308697,20.7918116 184.02027,20.3215146 184.443627,20.3215146 C184.52753,20.3215146 184.59542,20.3409152 184.630647,20.3676746 C184.763226,20.5248863 184.871467,21.6762109 184.339869,22.9064758 C183.945974,23.8176345 183.14025,24.8973776 181.52432,24.9850147 C181.772185,23.7306663 182.167362,22.6469093 182.673981,21.8414504 L182.673981,21.8414504 Z M132.976592,26.7571581 C132.958018,26.8528231 132.947129,26.9431362 132.931758,27.0374632 C132.913184,26.9116939 132.890127,26.7859245 132.859384,26.6581482 C132.636497,26.011239 132.25349,25.4800642 131.595077,24.9194541 C130.936663,24.451833 130.204595,23.9989296 129.594218,23.6804924 C128.91659,23.3031844 128.316461,22.8857372 127.914239,22.5144501 C127.627945,22.1933369 127.604887,22.1665775 127.543401,21.6989564 C127.484477,21.3905539 127.763726,20.7857907 128.424061,20.4967889 L128.496435,20.4526358 C128.784011,20.2191598 129.261168,20.0626171 129.684525,20.0626171 C129.775474,20.0626171 129.86386,20.0699759 129.976584,20.0893765 C130.316038,20.1194809 130.537644,20.2271876 130.636919,20.4111587 C130.793196,20.7014985 130.704169,21.2560878 130.39866,21.8943002 L130.236619,22.2328071 L133.62796,23.4871555 L132.976592,26.7571581 L132.976592,26.7571581 Z M153.943338,27.2689323 C152.404906,29.4143698 151.515279,29.6485149 151.202725,29.6485149 C150.998412,29.6485149 150.830606,29.5608777 150.690982,29.3809205 C150.19525,28.743377 150.129281,27.1465079 150.517412,25.2151458 C151.147644,22.1699224 152.759091,20.2853893 153.890819,20.2853893 C154.3462,20.2853893 154.743938,20.5797431 155.075066,21.1617608 L153.943338,27.2689323 L153.943338,27.2689323 Z" sketch:type="MSShapeGroup"></path>
            </g>
        </g>
    </g>
</svg>