<?xml version="1.0" encoding="UTF-8" standalone="no"?>
<svg width="66px" height="111px" viewBox="0 0 66 111" version="1.1" xmlns="http://www.w3.org/2000/svg" xmlns:xlink="http://www.w3.org/1999/xlink" xmlns:sketch="http://www.bohemiancoding.com/sketch/ns">
    <!-- Generator: Sketch 3.2.2 (9983) - http://www.bohemiancoding.com/sketch -->
    <title>thief-gnome</title>
    <desc>Created with Sketch.</desc>
    <defs></defs>
    <g id="404-de-contenidos" stroke="none" stroke-width="1" fill="none" fill-rule="evenodd" sketch:type="MSPage">
        <g id="Desktop-15" sketch:type="MSArtboardGroup" transform="translate(-337.000000, -113.000000)">
            <g id="thief-gnome" sketch:type="MSLayerGroup" transform="translate(337.500000, 113.500000)">
                <path d="M21.4443694,21.9721829 C21.3791487,22.6978994 20.8981938,23.5620553 19.9702608,24.4899884 L14.0736614,30.3865878 C11.5021153,32.9581338 9.41746537,32.0923038 9.41746537,28.4603553 L9.41746537,26.4162209 C9.41746537,22.780846 12.3679454,19.8337923 15.9998939,19.8337923 L17.0343355,19.8337923 L12.0297392,14.829196 C9.45639868,12.2558555 10.3205968,10.173 13.9559717,10.173 L16.0001061,10.173 C19.6320546,10.173 22.5825346,13.1200536 22.5825346,16.7554285 L22.5825346,18.7995629 C22.5825346,20.4474131 22.1534043,21.525851 21.4443694,21.9721829 Z" id="Rectangle-25" fill="#000000" sketch:type="MSShapeGroup"></path>
                <g id="Group" sketch:type="MSShapeGroup">
                    <path d="M23.6511883,39.2989495 C-7.23694417,39.2989495 -8.52394969,81.2726337 23.6511883,81.2726337 L23.6511883,39.2989495" id="Fill-7" fill="#000000"></path>
                    <path d="M53.0414365,49.8753347 C31.4406697,67.3563153 61.2088081,97.5133572 59.8397454,60.6417091" id="Stroke-17" stroke="#228A8A" stroke-width="2.94275245" stroke-linecap="round"></path>
                    <path d="M39.6848442,92.6770203 C28.9729936,92.6770203 20.2897896,84.2915848 20.2897896,73.9473982 L20.2897896,18.8602746 C20.2897896,8.5159411 28.9729936,0.130652592 39.6848442,0.130652592 C50.3965427,0.130652592 59.0798989,8.5159411 59.0798989,18.8602746 L59.0798989,73.9473982 C59.0798989,84.2915848 50.3965427,92.6770203 39.6848442,92.6770203 Z" id="Fill-2" fill="#33CDCD"></path>
                    <rect id="Rectangle-24" fill="#000000" x="19.2045455" y="15.9210526" width="41.3636364" height="7.23684211" rx="1.45321112"></rect>
                    <path d="M37.6782547,19.3376964 C37.6782547,18.5061011 38.3763245,17.8319816 39.237465,17.8319816 C40.0986054,17.8319816 40.7966752,18.5061011 40.7966752,19.3376964 C40.7966752,20.1692916 40.0986054,20.8434111 39.237465,20.8434111 C38.3763245,20.8434111 37.6782547,20.1692916 37.6782547,19.3376964" id="Fill-3" fill="#FFFFFF"></path>
                    <path d="M48.317545,19.3376964 C48.317545,18.5061011 49.0154627,17.8319816 49.8767553,17.8319816 C50.7378957,17.8319816 51.4359656,18.5061011 51.4359656,19.3376964 C51.4359656,20.1692916 50.7378957,20.8434111 49.8767553,20.8434111 C49.0154627,20.8434111 48.317545,20.1692916 48.317545,19.3376964" id="Fill-4" fill="#FFFFFF"></path>
                    <path d="M55.0084327,37.1154726 C49.8690589,47.4130742 41.1424567,47.0529897 36,39.3409621" id="Stroke-5" fill="#FFFFFF" transform="translate(45.504216, 41.057736) rotate(-180.000000) translate(-45.504216, -41.057736) "></path>
                    <path d="M20.2897896,41.1154726 C31.3944091,51.0311548 30.4146166,68.726461 19.7663513,72.9865319" id="Stroke-14" stroke="#000000" stroke-width="2.94275245" stroke-linecap="round"></path>
                    <path d="M24.0755521,60.2857916 C24.0755521,57.8269962 26.1396423,55.8337237 28.6857946,55.8337237 C31.2317949,55.8337237 33.295885,57.8269962 33.295885,60.2857916 C33.295885,62.744587 31.2317949,64.7378595 28.6857946,64.7378595 C26.1396423,64.7378595 24.0755521,62.744587 24.0755521,60.2857916" id="Fill-15" fill="#228A8A"></path>
                    <path d="M55.715368,58.6585726 C55.715368,56.1997772 57.7794582,54.2065048 60.3256105,54.2065048 C62.8716107,54.2065048 64.9357009,56.1997772 64.9357009,58.6585726 C64.9357009,61.117368 62.8716107,63.1106405 60.3256105,63.1106405 C57.7794582,63.1106405 55.715368,61.117368 55.715368,58.6585726" id="Fill-15" fill="#228A8A"></path>
                    <path d="M20.5327677,52.2606676 C20.5327677,50.9060941 21.2308415,49.8083238 22.0918662,49.8083238 C22.9531145,49.8083238 23.6511883,50.9060941 23.6511883,52.2606676 C23.6511883,53.6147644 22.9531145,54.7126937 22.0918662,54.7126937 C21.2308415,54.7126937 20.5327677,53.6147644 20.5327677,52.2606676" id="Fill-16" fill="#29B2B2"></path>
                    <path d="M21.4016206,51.5025537 C-0.199146158,68.9835342 29.5689922,99.1405761 28.1999295,62.268928" id="Stroke-17" stroke="#228A8A" stroke-width="2.94275245" stroke-linecap="round"></path>
                    <path d="M23.256092,107.911768 C23.256092,106.938269 30.6113052,106.14898 39.6848442,106.14898 C48.7582311,106.14898 56.1135964,106.938269 56.1135964,107.911768 C56.1135964,108.885268 48.7582311,109.674556 39.6848442,109.674556 C30.6113052,109.674556 23.256092,108.885268 23.256092,107.911768" id="Fill-18" fill="#E2E2E2"></path>
                </g>
                <g id="Group-2" sketch:type="MSShapeGroup">
                    <path d="M23.6511883,39.2989495 C-7.23694417,39.2989495 -8.52394969,81.2726337 23.6511883,81.2726337 L23.6511883,39.2989495" id="Fill-7" fill="#000000"></path>
                    <path d="M53.0414365,49.8753347 C31.4406697,67.3563153 61.2088081,97.5133572 59.8397454,60.6417091" id="Stroke-17" stroke="#228A8A" stroke-width="2.94275245" stroke-linecap="round"></path>
                    <path d="M39.6848442,92.6770203 C28.9729936,92.6770203 20.2897896,84.2915848 20.2897896,73.9473982 L20.2897896,18.8602746 C20.2897896,8.5159411 28.9729936,0.130652592 39.6848442,0.130652592 C50.3965427,0.130652592 59.0798989,8.5159411 59.0798989,18.8602746 L59.0798989,73.9473982 C59.0798989,84.2915848 50.3965427,92.6770203 39.6848442,92.6770203 Z" id="Fill-2" fill="#33CDCD"></path>
                    <rect id="Rectangle-24" fill="#000000" x="19.2045455" y="15.9210526" width="41.3636364" height="7.23684211" rx="1.45321112"></rect>
                    <path d="M37.6782547,19.3376964 C37.6782547,18.5061011 38.3763245,17.8319816 39.237465,17.8319816 C40.0986054,17.8319816 40.7966752,18.5061011 40.7966752,19.3376964 C40.7966752,20.1692916 40.0986054,20.8434111 39.237465,20.8434111 C38.3763245,20.8434111 37.6782547,20.1692916 37.6782547,19.3376964" id="Fill-3" fill="#FFFFFF"></path>
                    <path d="M48.317545,19.3376964 C48.317545,18.5061011 49.0154627,17.8319816 49.8767553,17.8319816 C50.7378957,17.8319816 51.4359656,18.5061011 51.4359656,19.3376964 C51.4359656,20.1692916 50.7378957,20.8434111 49.8767553,20.8434111 C49.0154627,20.8434111 48.317545,20.1692916 48.317545,19.3376964" id="Fill-4" fill="#FFFFFF"></path>
                    <path d="M55.0084327,37.1154726 C49.8690589,47.4130742 41.1424567,47.0529897 36,39.3409621" id="Stroke-5" fill="#FFFFFF" transform="translate(45.504216, 41.057736) rotate(-180.000000) translate(-45.504216, -41.057736) "></path>
                    <path d="M20.2897896,41.1154726 C31.3944091,51.0311548 30.4146166,68.726461 19.7663513,72.9865319" id="Stroke-14" stroke="#000000" stroke-width="2.94275245" stroke-linecap="round"></path>
                    <path d="M24.0755521,60.2857916 C24.0755521,57.8269962 26.1396423,55.8337237 28.6857946,55.8337237 C31.2317949,55.8337237 33.295885,57.8269962 33.295885,60.2857916 C33.295885,62.744587 31.2317949,64.7378595 28.6857946,64.7378595 C26.1396423,64.7378595 24.0755521,62.744587 24.0755521,60.2857916" id="Fill-15" fill="#228A8A"></path>
                    <path d="M55.715368,58.6585726 C55.715368,56.1997772 57.7794582,54.2065048 60.3256105,54.2065048 C62.8716107,54.2065048 64.9357009,56.1997772 64.9357009,58.6585726 C64.9357009,61.117368 62.8716107,63.1106405 60.3256105,63.1106405 C57.7794582,63.1106405 55.715368,61.117368 55.715368,58.6585726" id="Fill-15" fill="#228A8A"></path>
                    <path d="M20.5327677,52.2606676 C20.5327677,50.9060941 21.2308415,49.8083238 22.0918662,49.8083238 C22.9531145,49.8083238 23.6511883,50.9060941 23.6511883,52.2606676 C23.6511883,53.6147644 22.9531145,54.7126937 22.0918662,54.7126937 C21.2308415,54.7126937 20.5327677,53.6147644 20.5327677,52.2606676" id="Fill-16" fill="#29B2B2"></path>
                    <path d="M21.4016206,51.5025537 C-0.199146158,68.9835342 29.5689922,99.1405761 28.1999295,62.268928" id="Stroke-17" stroke="#228A8A" stroke-width="2.94275245" stroke-linecap="round"></path>
                    <path d="M23.256092,107.911768 C23.256092,106.938269 30.6113052,106.14898 39.6848442,106.14898 C48.7582311,106.14898 56.1135964,106.938269 56.1135964,107.911768 C56.1135964,108.885268 48.7582311,109.674556 39.6848442,109.674556 C30.6113052,109.674556 23.256092,108.885268 23.256092,107.911768" id="Fill-18" fill="#E2E2E2"></path>
                </g>
            </g>
        </g>
    </g>
</svg>